<?xml version="1.0" encoding="utf-8"?>
<!-- Generator: Adobe Illustrator 25.4.1, SVG Export Plug-In . SVG Version: 6.00 Build 0)  -->
<svg version="1.1" id="Ebene_1" xmlns="http://www.w3.org/2000/svg" xmlns:xlink="http://www.w3.org/1999/xlink" x="0px" y="0px"
	 viewBox="0 0 1366 768" style="enable-background:new 0 0 1366 768;" xml:space="preserve">
<style type="text/css">
	.st0{fill:#0EC90E;}
</style>
<g>
	<path d="M65.2,330H41V42.5h24.2V330z"/>
	<path d="M168.5,216.3V330h-24.2V42.5h87.5c66.3,0,104.6,32.5,104.6,87.1c0,54.2-37.9,86.7-104.6,86.7H168.5z M231.9,193.8
		c55.4,0,80.4-23.8,80.4-64.2c0-40.8-25-64.6-80.4-64.6h-63.3v128.8H231.9z"/>
	<path d="M541.1,100.8c-15-22.1-35-38.3-74.6-38.3c-39.6,0-65.8,16.3-65.8,51.7c0,41.3,32.9,51.7,74.6,60.8
		c54.2,11.7,90,28.3,90,82.5c0,36.7-25.8,75-94.6,75c-45.8,0-79.2-15.8-100.4-47.1l19.6-13.8c17.9,22.5,37.9,38.3,80.8,38.3
		c51.3,0,70.4-23.8,70.4-51.7c0-34.6-20-51.3-74.2-61.7c-53.8-10.4-90.4-31.3-90.4-82.5c0-40.4,26.3-74.2,90.9-74.2
		c44.6,0,72.9,15.4,92.9,47.1L541.1,100.8z"/>
	<path d="M624,212.5v-170h24.2v170c0,66.7,27.5,97.5,77.9,97.5s77.9-30.8,77.9-97.5v-170h24.2v170c0,84.6-39.6,120-102.1,120
		S624,297.1,624,212.5z"/>
	<path d="M1022.4,233.8l95.4-191.3h23.8V330h-24.2V95.4l-84.6,170.4h-21.7l-83.8-170V330h-24.2V42.5h23.3L1022.4,233.8z"/>
</g>
<g>
	<path class="st0" d="M57.8,383.9c13,0,19.3,5,19.3,14.4c0,6.3-4.3,11.4-9.8,12.8c7.2,1.6,11.6,6.3,11.6,13.8
		c0,7.7-5,15.8-19.2,15.8H41v-56.8H57.8z M45.8,409h13.5c9.2,0,13.1-4.9,13.1-10.7c0-5.8-3-10-14.6-10h-12V409z M45.8,436.3h14
		c9.8,0,14.4-4.7,14.4-11.4c0-7.7-5.2-11.4-16-11.4H45.8V436.3z"/>
	<path class="st0" d="M104.9,383.9h4.5v43.1c0,5.8,0.7,9.5,7.8,9.5v4.3c-9.5,0-12.3-4.1-12.3-12.7V383.9z"/>
	<path class="st0" d="M144.1,383.9h5.5v5.5h-5.5V383.9z M144.6,399.6h4.5v41.2h-4.5V399.6z"/>
	<path class="st0" d="M178.4,399.6h4.5v5.6c2.1-4,5.9-6.1,12.1-6.1c9.1,0,15.1,5.7,15.1,17.3v24.4h-4.5v-24.3
		c0-9.4-4.7-13.1-11.1-13.1c-7.7,0-11.6,5.1-11.6,12.7v24.7h-4.5V399.6z"/>
	<path class="st0" d="M264.5,383.9h4.5v56.8h-4.5v-5c-2.3,3.8-6.3,5.5-12.4,5.5c-10.7,0-16.1-6.9-16.1-18.2v-5.9
		c0-11.7,5.8-18,16.1-18c6.2,0,10.1,2,12.4,5.8V383.9z M264.5,423.1v-5.9c0-8.4-3.3-13.9-12.1-13.9c-7.8,0-11.9,4.9-11.9,13.8v5.9
		c0,8.6,3.9,14,11.9,14C261.7,437,264.5,431.2,264.5,423.1z"/>
	<path class="st0" d="M293.4,399.6h5.3v-9.1h4.5v9.1h10.1v4.2h-10.1v23c0,6.6,0.7,9.5,7.4,9.5h2.7v4.4h-2.9
		c-9.1,0-11.8-4.1-11.8-12.7v-24.3h-5.3V399.6z"/>
	<path class="st0" d="M340.9,421.3v1.7c0,8.1,3.8,14,12.5,14c5,0,8.4-1.5,10.7-5l3.6,2.6c-2.9,4.5-7.4,6.7-14.1,6.7
		c-10.9,0-17.3-6.7-17.3-18.2v-5.9c0-11.7,5.6-18,15.9-18c10.3,0,15.9,6.3,15.9,18v4.2H340.9z M340.9,417.2h22.7v-0.1
		c0-9-3.9-13.8-11.4-13.8S340.9,408.2,340.9,417.2L340.9,417.2z"/>
	<path class="st0" d="M417.5,440.7l-11.9-17.1l-12,17.1h-5.4l14.7-21.1l-13.5-20.1h5.4l10.8,16.2l10.7-16.2h5.4l-13.5,20.1
		l14.7,21.1H417.5z"/>
	<path class="st0" d="M442.7,399.6h5.3v-9.1h4.5v9.1h10.1v4.2h-10.1v23c0,6.6,0.7,9.5,7.4,9.5h2.7v4.4h-2.9
		c-9.1,0-11.8-4.1-11.8-12.7v-24.3h-5.3V399.6z"/>
	<path class="st0" d="M521.2,423c0,11.3-5.4,18.2-16.1,18.2c-6.3,0-10.1-1.7-12.4-5.4v20.5h-4.5v-56.8h4.5v5.2
		c2.3-3.7,6.2-5.7,12.4-5.7c10.2,0,16.1,6.3,16.1,18V423z M516.7,423v-5.9c0-9-4-13.8-11.9-13.8c-8.7,0-12.1,5.3-12.1,13.3v7.2
		c0.1,7.7,3,13.3,12.1,13.3C512.7,437,516.7,431.7,516.7,423z"/>
	<path class="st0" d="M559,417.4h12v-5.1c0-7-2.8-8.9-10.4-8.9c-4.9,0-8.1,0.3-10.8,4.7l-3.5-2.4c2.9-4.9,7-6.6,14.3-6.6
		c10,0,14.8,3.1,14.8,13.2v28.5h-4.5v-5.1c-2.3,4.4-6.4,5.6-11.7,5.6c-9.1,0-14.3-4.4-14.3-12.3C545,421.1,550.6,417.4,559,417.4z
		 M571.1,421.4h-12c-7.1,0-9.5,3.3-9.5,7.7c0,5.8,4,7.9,9.8,7.9c6.7,0,11.7-2.3,11.7-11.5V421.4z"/>
	<path class="st0" d="M608.1,416v24.8h-4.5v-41.2h4.5v5.6c1.7-3.8,5.2-6.1,10.4-6.1c5.4,0,8.9,2.1,11.6,5.7l-3.8,2.8
		c-2.1-2.8-4.6-4.2-8.2-4.2C611.6,403.4,608.1,408.5,608.1,416z"/>
	<path class="st0" d="M648.3,399.6h5.3v-9.1h4.5v9.1h10.1v4.2h-10.1v23c0,6.6,0.7,9.5,7.4,9.5h2.7v4.4h-2.9
		c-9.1,0-11.8-4.1-11.8-12.7v-24.3h-5.3V399.6z"/>
	<path class="st0" d="M693.7,399.6h4.5v5.6c2.1-4,5.9-6.1,12.1-6.1c9.1,0,15.1,5.7,15.1,17.3v24.4h-4.5v-24.3
		c0-9.4-4.7-13.1-11.1-13.1c-7.7,0-11.6,5.1-11.6,12.7v24.7h-4.5V399.6z"/>
	<path class="st0" d="M755.9,421.3v1.7c0,8.1,3.8,14,12.5,14c5,0,8.4-1.5,10.7-5l3.6,2.6c-2.9,4.5-7.4,6.7-14.1,6.7
		c-10.9,0-17.3-6.7-17.3-18.2v-5.9c0-11.7,5.6-18,15.9-18c10.3,0,15.9,6.3,15.9,18v4.2H755.9z M755.9,417.2h22.7v-0.1
		c0-9-3.9-13.8-11.4-13.8C759.8,403.3,755.9,408.2,755.9,417.2L755.9,417.2z"/>
	<path class="st0" d="M814.3,416v24.8h-4.5v-41.2h4.5v5.6c1.7-3.8,5.2-6.1,10.4-6.1c5.4,0,8.9,2.1,11.6,5.7l-3.8,2.8
		c-2.1-2.8-4.6-4.2-8.2-4.2C817.8,403.4,814.3,408.5,814.3,416z"/>
	<path class="st0" d="M934.5,413v2.3c0,18.1-7.8,25.9-20.5,25.9c-12.3,0-20.2-7.2-20.2-25.5V409c0-18.4,7.8-25.5,20.2-25.5
		c10,0,18.2,5.3,20,17.7h-4.7c-1.8-9.5-7.4-13.3-15.3-13.3c-9.6,0-15.4,5.6-15.4,21.1v6.7c0,15.5,5.8,21.1,15.4,21.1
		c9.5,0,15.1-5.4,15.6-19.3h-15.4V413H934.5z"/>
	<path class="st0" d="M961.3,399.6h4.5v5.6c1.7-3.8,5.4-6.1,10.9-6.1c5.8,0,10.1,2.8,12.3,8.1c2.3-5.2,6.8-8.1,12.5-8.1
		c8.6,0,13.9,6.1,13.9,17.3v24.4h-4.5v-24.3c0-9-3.9-13.1-9.9-13.1c-6.6,0-10.4,4.9-10.4,12.1v25.3h-4.5v-24.3
		c0-9-3.9-13.1-9.9-13.1c-6.8,0-10.4,5.1-10.4,12.7v24.7h-4.5V399.6z"/>
	<path class="st0" d="M1047.9,404.8c2.3-3.7,6.2-5.7,12.4-5.7c10.2,0,16.1,6.3,16.1,18v5.9c0,11.3-5.4,18.2-16.1,18.2
		c-6.3,0-10.1-1.7-12.4-5.4v4.9h-4.5v-56.8h4.5V404.8z M1071.8,423v-5.9c0-9-4-13.8-11.9-13.8c-8.7,0-12.1,5.3-12.1,13.3v7.2
		c0.1,7.7,3,13.3,12.1,13.3C1067.9,437,1071.8,431.7,1071.8,423z"/>
	<path class="st0" d="M1108.7,409h28.2v-25.1h4.8v56.8h-4.8v-27.2h-28.2v27.2h-4.8v-56.8h4.8V409z"/>
</g>
<circle class="st0" cx="1263.1" cy="117.7" r="74.9"/>
</svg>
